<?xml version="1.0" encoding="UTF-8"?>
<svg id="Layer_5" xmlns="http://www.w3.org/2000/svg" version="1.1" viewBox="0 0 800 924.7">
  <!-- Generator: Adobe Illustrator 29.1.0, SVG Export Plug-In . SVG Version: 2.1.0 Build 142)  -->
  <defs>
    <style>
      .st0 {
        fill: #f9a533;
      }

      .st1 {
        fill: #f26f2e;
      }

      .st2 {
        fill: #fff;
      }

      .st3 {
        fill: #f58a2f;
      }

      .st4 {
        fill: #f05a2d;
      }
    </style>
  </defs>
  <path class="st3" d="M725.6,253.9v46.8c0,29.9-46.9,30.4-46.9,0v-139c0-47.4-74.1-48-74.1,0v92.2c0,29.7-46.9,30.4-46.9,0V98.3c0-47.4-74.1-48-74.1,0v57.9c0,29.4-46.8,30.9-46.8,0V35.4c0-46.1-74.1-48.2-74.1,0v120.8c0,30.1-46.8,30.4-46.8,0v-57.8c0-47.3-74.1-48.1-74.1,0v144.6c0,29.9-46.8,30.5-46.8,0v-81.2c0-47.5-74.1-48-74.1,0v294.2c0,29.8-46.9,30.4-46.9,0v-202C74,208.1-.1,206-.1,254-.1,534.8-.1,673.3-.1,669.4c0,47.4,74.1,48.1,74.1,0v-41c0-29.9,46.9-30.4,46.9,0v133.2c0,47.4,74.1,48,74.1,0v-86.4c0-29.7,46.9-30.4,46.9,0v149.8c0,47.4,74.1,48,74.1,0v-52.1c0-29.4,46.8-30.9,46.8,0v115c0,46.1,74.1,48.2,74.1,0v-115c0-30.1,46.8-30.4,46.8,0v52c0,47.3,74.1,48.1,74.1,0v-138.8c0-29.9,46.8-30.5,46.8,0v75.4c0,47.5,74.1,48,74.1,0v-282.6c0-29.8,46.9-30.4,46.9,0v190.4c0,45.9,74.1,48,74.1,0V253.9c0-47.4-74.1-48.1-74.1,0h0Z"/>
  <path class="st0" d="M400.4,914.4c-15.8.3-31.8-8.4-31.8-26.5v-115c0-36.8-58.4-37-58.4,0v52.1c0,39-62.5,39.3-62.5,0v-149.8c0-35.6-58.5-37.1-58.5,0v86.4c0,39-62.5,39.4-62.5,0v-133.2c0-36.9-58.5-37.1-58.5,0v41c0,38.5-62.5,39.8-62.5,0V253.9c0-37.3,62.5-39.1,62.5,0v202c0,36.9,58.5,37.1,58.5,0V161.7c0-38.5,62.5-39.4,62.5,0v81.2c0,37,58.4,37.1,58.4,0V98.3c0-37.7,62.5-39.1,62.5,0v57.8c0,36.9,58.4,37.3,58.4,0V35.4c0-37.8,62.5-38.5,62.5,0v120.8c0,36.4,58.4,37.5,58.4,0v-57.9c0-38.9,62.5-39.4,62.5,0v155.6c0,37,58.5,37,58.5,0v-92.2c0-37.9,62.5-39.1,62.5,0v139c0,37,58.5,37.1,58.5,0v-46.8c0-38.9,62.5-39.4,62.5,0v415.4c0,38.1-62.5,38.6-62.5,0v-190.4c0-36.7-58.5-37.1-58.5,0v282.6c0,39.1-62.5,39.3-62.5,0v-75.4c0-36.7-58.4-37.2-58.4,0v138.8c0,38-62.5,39.5-62.5,0v-52.1c0-36.8-58.4-37.2-58.4,0v115c0,17.3-15.2,26.2-30.7,26.5h0Z"/>
  <path class="st3" d="M368.4,159.3c-3.1,34.1-58.3,32.7-58.3-3.1v-57.8c0-39.1-62.5-37.7-62.5,0v144.6c0,37.1-58.4,37-58.4,0v-81.2c0-39.4-62.5-38.5-62.5,0v294.2c0,37.1-58.5,36.9-58.5,0v-202c0-39.1-62.5-37.3-62.5,0v415.4c0,39.8,62.5,38.5,62.5,0v-41c0-37.2,58.5-36.9,58.5,0v133.2c0,39.4,62.5,39,62.5,0v-86.4c0-37.1,58.5-35.6,58.5,0v149.8c0,39.3,62.5,39,62.5,0v-52.1c0-37,58.4-36.8,58.4,0v115c0,18.1,16,26.8,31.8,26.5,15.4-.3,30.7-9.2,30.7-26.5v-115c0-37.2,58.4-36.9,58.4,0v52.1c0,39.5,62.5,38,62.5,0v-138.8c0-37.2,58.4-36.7,58.4,0v75.4c0,39.3,62.5,39.1,62.5,0v-282.6c0-37.1,58.5-36.7,58.5,0v190.4c0,38.6,62.5,38.1,62.5,0v-240.3c-180-14.6-337.4-120.2-425.5-269.8h0Z"/>
  <g>
    <path class="st1" d="M622.2,558.4c-218.4,0-410-134.5-495.4-323.9v221.4c0,37.1-58.5,36.9-58.5,0v-202c0-39.1-62.5-37.3-62.5,0v415.4c0,39.8,62.5,38.5,62.5,0v-41c0-37.2,58.5-36.9,58.5,0v133.2c0,39.4,62.5,39,62.5,0v-86.4c0-37.1,58.5-35.6,58.5,0v149.8c0,39.3,62.5,39,62.5,0v-52.1c0-37,58.4-36.8,58.4,0v115c0,18.1,16,26.8,31.8,26.5,15.4-.3,30.7-9.2,30.7-26.5v-115c0-37.2,58.4-36.9,58.4,0v52.1c0,39.5,62.5,38,62.5,0v-138.8c0-37.2,58.4-36.7,58.4,0v75.4c0,39.3,62.5,39.1,62.5,0v-205.6c-16.7,1.6-33.7,2.5-50.8,2.5Z"/>
    <path class="st1" d="M731.4,547v122.4c0,38.6,62.5,38.1,62.5,0v-139.6c-20.3,7-41.2,12.7-62.5,17.2h0Z"/>
  </g>
  <g>
    <path class="st4" d="M500.4,709.2c-217.6,0-408.7-133.6-494.6-322v282.2c0,39.8,62.5,38.5,62.5,0v-41c0-37.2,58.5-36.9,58.5,0v133.2c0,39.4,62.5,39,62.5,0v-86.4c0-37.1,58.5-35.6,58.5,0v149.8c0,39.3,62.5,39,62.5,0v-52.1c0-37,58.4-36.8,58.4,0v115c0,18.1,16,26.8,31.8,26.5,15.4-.3,30.7-9.2,30.7-26.5v-115c0-37.2,58.4-36.9,58.4,0v52.1c0,39.5,62.5,38,62.5,0v-118.3c-17,1.7-34.2,2.6-51.6,2.6h0Z"/>
    <path class="st4" d="M731.4,656.2v13.2c0,38.6,62.5,38.1,62.5,0v-48.4c-20,13.1-40.9,24.9-62.5,35.3h0Z"/>
    <path class="st4" d="M610.5,697.6v63.9c0,39.3,62.5,39.1,62.5,0v-81.3c-20.3,7-41.2,12.8-62.5,17.3h0Z"/>
  </g>
  <path class="st2" d="M355.2,299.8l202.8,117.1c34.4,19.9,34.4,69.6,0,89.4l-202.8,117.1c-34.4,19.9-77.4-5-77.4-44.7v-234.2c0-39.7,43-64.6,77.4-44.7h0Z"/>
</svg>